<svg id="Capa_1" enable-background="new 0 0 512 512" height="512" viewBox="0 0 512 512" width="512" xmlns="http://www.w3.org/2000/svg"><g><ellipse cx="142.604" cy="295.688" rx="10" ry="10" transform="matrix(.987 -.16 .16 .987 -45.523 26.661)"/><path d="m453.113 284.241c10.751 0 20.766-5.323 26.791-14.24 3.106-4.597 1.897-10.842-2.7-13.948-4.597-3.105-10.842-1.897-13.948 2.7-2.283 3.38-6.075 5.397-10.143 5.397-4.111 0-7.925-2.051-10.202-5.487-3.064-4.625-9.298-5.889-13.923-2.824-4.625 3.066-5.889 9.299-2.824 13.924 6.008 9.066 16.083 14.478 26.949 14.478z"/><path d="m356.378 284.241c10.868 0 20.943-5.413 26.952-14.482 3.065-4.625 1.8-10.858-2.825-13.923-4.625-3.064-10.859-1.8-13.923 2.825-2.277 3.437-6.092 5.488-10.203 5.488-4.068 0-7.86-2.017-10.143-5.397-3.106-4.597-9.352-5.807-13.948-2.7-4.598 3.106-5.806 9.351-2.7 13.948 6.024 8.918 16.039 14.241 26.79 14.241z"/><path d="m468.571 407.8c12.84-9.836 21.576-21.936 27.443-33.06 12.887-24.436 14.57-48.672 14.733-51.68 7.553-83.764-21.942-144.844-23.202-147.406-6.611-13.423-25.096-16.884-36.775-8.214-3.202 2.378-6.593 5.955-7.721 9.874l-2.807 9.764h-70.994l-2.807-9.764c-1.006-3.496-3.874-6.71-6.613-8.999-2.736-2.286-5.965-3.958-9.41-4.877-6.894-1.839-14.477-.663-20.417 3.312-3.29 2.202-6.295 5.33-8.056 8.905-.79 1.606-12.684 26.233-19.581 65.032h-136.376c-91.526-.002-165.988 75.317-165.988 167.896v36.861c0 25.727 20.731 46.656 46.214 46.656h.006 145.9c5.548 0 10.046-4.498 10.046-10.046v-26.121h59.342c4.601 20.666 23.069 36.167 45.101 36.167h195.346c5.548 0 10.046-4.498 10.046-10.046v-28.136c-.001-24.546-19.241-44.674-43.43-46.118zm-59.768-73.258c-1.784 3.09-6.329 3.091-8.114 0l-11.397-19.74c-1.788-3.096.497-7.027 4.058-7.027h22.793c3.559 0 5.847 3.929 4.058 7.027zm-6.455 43.287c.789-.932 1.633-1.816 2.398-2.768.763.951 1.561 1.873 2.393 2.764 10.642 11.417 26.466 17.965 43.413 17.965.044 0 .086-.002.13-.002-12.798 7.927-28.336 11.922-46.514 11.922-18.182 0-33.671-4.002-46.367-11.94.38.006 29.462-.132 44.547-17.941zm-62.531-192.973c1.721-2.646 5.701-2.926 7.745-.495l4.467 15.539c1.238 4.305 5.176 7.271 9.655 7.271h86.124c4.479 0 8.417-2.966 9.655-7.271l4.467-15.539c2.043-2.43 6.022-2.151 7.744.493 2.296 4.916 27.848 61.708 21.046 136.591-.01.111-.832 14.636-6.764 28.699-7.254 17.196-18.18 25.554-33.403 25.554-11.394 0-21.861-4.219-28.721-11.577-2.777-2.976-4.749-6.285-5.887-9.783 4.21-2.123 7.779-5.454 10.258-9.749l11.397-19.74c4.478-7.757 4.479-17.019 0-24.776-4.478-7.757-12.5-12.389-21.457-12.389h-22.793c-8.957 0-16.979 4.632-21.457 12.389-4.479 7.757-4.478 17.019 0 24.776l11.397 19.74c2.479 4.295 6.048 7.626 10.258 9.749-1.139 3.498-3.111 6.809-5.891 9.788-6.856 7.354-17.322 11.572-28.716 11.572-15.095 0-25.963-8.222-33.225-25.136-5.991-13.954-6.939-28.992-6.942-29.116-6.808-74.928 18.778-131.742 21.043-136.59zm152.091 287.152h-24.815v-12.702c0-5.548-4.498-10.046-10.046-10.046s-10.046 4.498-10.046 10.046v12.702h-140.393c-14.404 0-26.122-11.718-26.122-26.121v-36.542c0-5.548-4.498-10.046-10.046-10.046s-10.046 4.498-10.046 10.046v26.496h-62.099c-7.146-16.305-23.432-27.729-42.344-27.729h-63.931c-5.548 0-10.046 4.498-10.046 10.046s4.498 10.046 10.046 10.046h63.932c14.404 0 26.122 11.719 26.122 26.122v17.682h-25.029v-12.702c0-5.548-4.498-10.046-10.046-10.046s-10.046 4.498-10.046 10.046v12.702h-90.733-.006c-14.404 0-26.122-11.917-26.122-26.565v-36.861c0-81.5 65.449-147.806 145.897-147.806h133.471c-2.085 18.615-2.757 39.59-.72 62.227.143 3.28 1.601 27.363 14.116 51.652 12.493 24.245 38.476 53.145 91.313 53.145h61.622c14.401 0 26.117 11.717 26.117 26.117z"/><path d="m98.989 307.372c-9.196 4.878-17.372 11.284-24.301 19.042-7.057 7.902-12.57 16.924-16.388 26.815-1.863 4.826.362 10.447 5.033 12.679 5.22 2.494 11.631-.054 13.711-5.443 2.943-7.625 7.193-14.578 12.63-20.668 5.339-5.978 11.641-10.916 18.73-14.676 4.901-2.6 6.767-8.68 4.168-13.582-2.6-4.899-8.68-6.765-13.583-4.167z"/><path d="m177.132 204.425c1.735 3.305 5.161 5.375 8.894 5.375h41.613c5.548 0 10.046-4.498 10.046-10.046s-4.498-10.046-10.046-10.046h-22.482l29.07-42.151c2.12-3.074 2.36-7.068.624-10.375-1.735-3.305-5.161-5.375-8.894-5.375h-38.881c-5.548 0-10.046 4.498-10.046 10.046s4.498 10.046 10.046 10.046h19.749l-29.07 42.151c-2.119 3.075-2.359 7.069-.623 10.375z"/><path d="m261.088 135.68c1.735 3.305 5.161 5.375 8.894 5.375h30.733c5.548 0 10.046-4.498 10.046-10.046s-4.498-10.046-10.046-10.046h-11.602l18.63-27.013c2.12-3.074 2.36-7.068.624-10.375-1.735-3.305-5.161-5.375-8.894-5.375h-28.715c-5.548 0-10.046 4.498-10.046 10.046s4.498 10.046 10.046 10.046h9.584l-18.63 27.013c-2.119 3.074-2.359 7.069-.624 10.375z"/><path d="m86.382 118.531c1.735 3.305 5.161 5.375 8.894 5.375h60.309c5.548 0 10.046-4.498 10.046-10.046s-4.498-10.046-10.046-10.046h-41.177l47.01-68.165c2.12-3.074 2.36-7.068.624-10.375-1.735-3.305-5.161-5.375-8.894-5.375h-56.349c-5.548 0-10.046 4.498-10.046 10.046s4.498 10.046 10.046 10.046h37.218l-47.01 68.165c-2.12 3.074-2.36 7.069-.625 10.375z"/></g></svg>