<svg id="Capa_1" enable-background="new 0 0 511 511" height="512" viewBox="0 0 511 511" width="512" xmlns="http://www.w3.org/2000/svg"><g><circle cx="392.43" cy="255.5" r="10"/><path d="m347.92 85.435c2.67-4.834.916-10.918-3.918-13.588-19.442-10.738-51.164-23.383-91.917-22.635-37.729.692-67.097 12.692-85.088 22.637-4.833 2.671-6.586 8.756-3.915 13.589 1.824 3.3 5.239 5.165 8.761 5.165 1.636 0 3.295-.402 4.829-1.25 16.01-8.849 42.153-19.527 75.78-20.144 36.331-.676 64.576 10.587 81.88 20.145 4.834 2.67 10.918.915 13.588-3.919z"/><path d="m511 255.5c0-68.247-26.577-132.408-74.834-180.666-4.351-4.351-8.825-8.666-13.549-12.613-46.411-40.251-105.074-62.221-167.117-62.221s-120.706 21.97-167.117 62.221c-4.724 3.948-9.198 8.262-13.549 12.613-48.257 48.258-74.834 112.419-74.834 180.666s26.577 132.408 74.834 180.666c4.353 4.353 8.827 8.679 13.558 12.621 46.41 40.246 105.069 62.213 167.108 62.213s120.698-21.967 167.108-62.212c4.731-3.944 9.205-8.268 13.558-12.622 48.257-48.258 74.834-112.419 74.834-180.666zm-65.14 138.711c-20.677-28.348-34.86-61.128-41.234-95.541-1.005-5.43-6.22-9.02-11.654-8.011-5.431 1.006-9.017 6.223-8.011 11.654 7.246 39.121 23.78 76.297 47.975 108.029-4.972 5.681-10.201 11.124-15.684 16.313-37.526-47.312-58.092-107.668-58.092-171.155s20.566-123.843 58.091-171.155c5.483 5.189 10.713 10.632 15.685 16.313-24.078 31.579-40.577 68.565-47.873 107.479-1.018 5.428 2.558 10.654 7.986 11.671.623.117 1.243.173 1.854.173 4.718 0 8.917-3.354 9.817-8.159 6.417-34.222 20.566-66.827 41.139-95.034 29.305 40.038 45.141 88.155 45.141 138.712s-15.836 98.674-45.14 138.711zm-356.883 27.812c-3.791-3.79-7.424-7.695-10.922-11.692 33.753-44.288 52.265-98.935 52.265-154.831s-18.512-110.543-52.265-154.831c3.497-3.997 7.131-7.902 10.922-11.692 1.571-1.571 3.165-3.11 4.772-4.631 37.526 47.312 58.091 107.667 58.091 171.155s-20.566 123.843-58.091 171.155c-1.608-1.522-3.202-3.062-4.772-4.633zm-23.843-305.227c29.213 40.084 45.186 88.852 45.186 138.704s-15.973 98.62-45.185 138.704c-29.301-40.036-45.135-88.15-45.135-138.704s15.834-98.668 45.134-138.704zm43.719 322.99c40.68-50.947 62.987-115.966 62.987-184.286s-22.306-133.339-62.987-184.286c41.536-33.184 92.702-51.214 146.647-51.214s105.111 18.03 146.647 51.214c-40.681 50.947-62.987 115.966-62.987 184.286s22.306 133.339 62.987 184.286c-41.536 33.184-92.702 51.214-146.647 51.214s-105.111-18.03-146.647-51.214z"/></g></svg>