<svg id="Capa_1" enable-background="new 0 0 512 512" height="512" viewBox="0 0 512 512" width="512" xmlns="http://www.w3.org/2000/svg"><g><g><circle cx="203.423" cy="142.861" r="6.061"/><circle cx="243.829" cy="148.416" r="6.061"/><circle cx="214.535" cy="170.64" r="6.061"/><path d="m351.39 420.229h-333.79c-1.434 0-2.6-1.167-2.6-2.6v-44.45c0-1.434 1.167-2.6 2.6-2.6h44.91c4.142 0 7.5-3.358 7.5-7.5s-3.358-7.5-7.5-7.5h-19.933l22.096-135.965c1.005-6.18 6.278-10.665 12.537-10.665h357.58c6.259 0 11.531 4.485 12.537 10.663l9.31 57.31c.665 4.088 4.525 6.869 8.605 6.2 4.089-.664 6.865-4.517 6.201-8.605l-9.311-57.312c-2.193-13.475-13.693-23.255-27.343-23.255h-7.131c-2.375-17.924-13.179-33.471-29.217-41.946.278-2.024.419-4.066.419-6.112 0-23.378-17.969-42.638-40.82-44.694-6.433-14.622-21.093-24.425-37.391-24.425-15.648 0-29.694 8.949-36.509 22.535-5.171-1.55-10.532-2.332-16.02-2.332-9.845 0-19.344 2.537-27.782 7.381-11.313-8.051-24.923-12.432-38.889-12.432-32.348 0-59.528 22.65-65.763 53.69-26.448 1.943-47.836 22.342-51.332 48.335h-7.144c-13.65 0-25.15 9.78-27.343 23.257l-22.487 138.372h-9.78c-9.705 0-17.6 7.896-17.6 17.6v44.45c0 9.705 7.896 17.6 17.6 17.6h333.79c4.143 0 7.5-3.358 7.5-7.5s-3.358-7.5-7.5-7.5zm-211.559-259.767c8.432-.005 16.686 2.591 23.569 7.449 1.313.925 2.819 1.369 4.312 1.369 2.357 0 4.678-1.108 6.138-3.182 2.385-3.386 1.573-8.065-1.813-10.45-6.388-4.499-13.598-7.576-21.19-9.093 5.594-23.037 26.205-39.631 50.605-39.631 12.3 0 24.244 4.377 33.632 12.326 2.623 2.22 6.419 2.375 9.213.374 6.987-5.004 15.226-7.648 23.826-7.648 14.167-.12 27.869 7.692 35.123 19.847 1.409 2.335 3.888 3.626 6.429 3.626 1.319 0 2.656-.348 3.868-1.079 3.546-2.14 4.687-6.75 2.547-10.296-4.529-7.507-10.851-13.896-18.254-18.555 4.403-8.301 13.114-13.746 22.815-13.746 11.516 0 21.738 7.735 24.86 18.81.937 3.32 3.981 5.564 7.464 5.461l.261-.009c.249-.009.499-.019.75-.019 16.474 0 29.876 13.402 29.876 29.876 0 .268-.021.535-.029.803-3.812-.809-7.709-1.232-11.664-1.232-6.702 0-13.262 1.174-19.494 3.489-3.883 1.442-5.861 5.76-4.419 9.643 1.441 3.882 5.76 5.858 9.642 4.419 9.231-3.464 19.872-3.394 29.052.198 13.503 5.256 22.999 16.884 25.525 30.738h-312.932c3.536-19.03 20.25-33.488 40.288-33.488z"/><path d="m494.4 355.579h-9.78l-7.557-46.513c-.664-4.089-4.516-6.865-8.606-6.2-4.088.664-6.864 4.517-6.2 8.605l7.166 44.107h-371.913c-4.142 0-7.5 3.358-7.5 7.5s3.358 7.5 7.5 7.5h396.89c1.434 0 2.6 1.167 2.6 2.6v44.45c0 1.434-1.166 2.6-2.6 2.6h-108.01c-4.143 0-7.5 3.358-7.5 7.5s3.357 7.5 7.5 7.5h108.01c9.704 0 17.6-7.896 17.6-17.6v-44.45c0-9.704-7.896-17.599-17.6-17.599z"/><path d="m296.406 240.417c-11.554 0-21.35 7.668-24.565 18.183h-31.681c-3.216-10.515-13.013-18.183-24.566-18.183-14.162 0-25.683 11.521-25.683 25.683 0 6.014 2.074 11.677 5.717 16.163-3.644 4.486-5.717 10.148-5.717 16.163 0 14.162 11.521 25.683 25.683 25.683 11.554 0 21.35-7.668 24.566-18.183h31.681c3.216 10.515 13.012 18.183 24.565 18.183 14.162 0 25.684-11.521 25.684-25.683 0-6.014-2.073-11.677-5.718-16.163 3.645-4.486 5.718-10.148 5.718-16.163 0-14.161-11.522-25.683-25.684-25.683zm4.872 48.514c3.585 1.846 5.812 5.484 5.812 9.495 0 5.891-4.793 10.683-10.684 10.683s-10.683-4.792-10.683-10.683c0-4.142-3.357-7.5-7.5-7.5h-44.447c-4.142 0-7.5 3.358-7.5 7.5 0 5.891-4.792 10.683-10.683 10.683s-10.683-4.792-10.683-10.683c0-4.011 2.227-7.649 5.812-9.495 2.497-1.286 4.066-3.859 4.066-6.668s-1.569-5.382-4.066-6.668c-3.585-1.846-5.812-5.484-5.812-9.495 0-5.891 4.792-10.683 10.683-10.683s10.683 4.792 10.683 10.683c0 4.142 3.358 7.5 7.5 7.5h44.447c4.143 0 7.5-3.358 7.5-7.5 0-5.891 4.792-10.683 10.683-10.683s10.684 4.792 10.684 10.683c0 4.01-2.227 7.649-5.812 9.495-2.497 1.286-4.066 3.859-4.066 6.668s1.569 5.382 4.066 6.668z"/></g></g></svg>