<svg height="512" viewBox="0 0 64 64" width="512" xmlns="http://www.w3.org/2000/svg"><g id="flat"><path d="m20 42s-6-4-6-14a18.459 18.459 0 0 0 -6 11l3-1a12.677 12.677 0 0 0 -2 6l3-1s0 6 8 7h2v-7z" fill="#f9bb4b"/><path d="m29 50c0-3.866-2.791-11-5-11s-4 7.134-4 11c0 2.5 1 3 1.72 4l-2.72 1v3h8v-1.944a8.855 8.855 0 0 0 2-6.056z" fill="#ffd782"/><path d="m41 50c0-3.866 2.791-11 5-11s4 7.134 4 11c0 2.5-1 3-1.72 4l2.72 1v3h-8v-1.944a8.855 8.855 0 0 1 -2-6.056z" fill="#ffd782"/><path d="m35 23-7.775 2.906a87.032 87.032 0 0 1 -2.225 9.094c-2 5 1 20 1 22h-1a2 2 0 0 0 -2 2v2h9v-4c0 1.1 1.343 2 3 2s3-.9 3-2v4h8l1-2a2 2 0 0 0 -2-2h-1c0-2 3-17 1-22a87.032 87.032 0 0 1 -2.225-9.094z" fill="#f9bb4b"/><path d="m32 57a1 1 0 0 1 -1-1v-13a9.157 9.157 0 0 1 .623-3.532.992.992 0 0 1 1.465-.409.992.992 0 0 1 .362 1.212 7.233 7.233 0 0 0 -.45 2.729v13a1 1 0 0 1 -1 1z" fill="#d3843d"/><path d="m38 57a1 1 0 0 1 -1-1v-13a7.233 7.233 0 0 0 -.454-2.727.992.992 0 0 1 .362-1.212.992.992 0 0 1 1.465.409 9.157 9.157 0 0 1 .627 3.53v13a1 1 0 0 1 -1 1z" fill="#d3843d"/><path d="m39 3h-7l-7 2v14l2 6 .507 2.042a3.54 3.54 0 0 0 3.493 2.958 3.54 3.54 0 0 0 3.492-2.958l.508-2.042.507 2.042a3.54 3.54 0 0 0 3.493 2.958 3.54 3.54 0 0 0 3.492-2.958l.508-2.042 2-6v-14z" fill="#ffd782"/><path d="m38 21c0 1.657-1.343 4-3 4s-3-2.343-3-4 1.343-2 3-2 3 .343 3 2z" fill="#301a12"/><path d="m25 5s-4-2-7-2l1 2-5 5c-3 3 4 9 4 13 0 5.375 7 7.75 7-4z" fill="#f9bb4b"/><circle cx="30" cy="13" fill="#301a12" r="1"/><path d="m45 5s4-2 7-2l-1 2 5 5c3 3-4 9-4 13 0 5.375-7 7.75-7-4z" fill="#f9bb4b"/><circle cx="40" cy="13" fill="#301a12" r="1"/></g></svg>